<svg width="26" height="26" viewBox="0 0 26 26" fill="none" xmlns="http://www.w3.org/2000/svg">
<path fill-rule="evenodd" clip-rule="evenodd" d="M15.4487 20.582C15.8913 20.582 16.25 20.932 16.25 21.3638V21.744C16.25 21.744 16.25 21.7441 16.25 21.744C16.2501 22.5849 15.9079 23.3915 15.2986 23.9862C14.6892 24.581 13.8627 24.9152 13.0007 24.9154C12.1388 24.9155 11.312 24.5817 10.7024 23.9872C10.0928 23.3927 9.75019 22.5863 9.75 21.7454V21.3648C9.75 20.9331 10.1087 20.5831 10.5513 20.5831C10.9938 20.5831 11.3526 20.9331 11.3526 21.3648V21.7451C11.3526 21.745 11.3526 21.7451 11.3526 21.7451C11.3527 22.1713 11.5264 22.5801 11.8353 22.8814C12.1444 23.1828 12.5634 23.352 13.0004 23.3519C13.4373 23.3518 13.8563 23.1824 14.1652 22.8809C14.4741 22.5795 14.6475 22.1706 14.6474 21.7444V21.3638C14.6474 20.932 15.0062 20.582 15.4487 20.582Z" fill="white"/>
<path fill-rule="evenodd" clip-rule="evenodd" d="M13.3309 1.08203C12.9779 1.08203 12.6283 1.14541 12.3021 1.26854C11.976 1.39167 11.6796 1.57215 11.43 1.79967C11.1804 2.02719 10.9824 2.29729 10.8473 2.59456C10.7122 2.89183 10.6426 3.21044 10.6426 3.5322V4.40299C10.6426 4.4819 10.6567 4.55781 10.6828 4.62874C10.333 4.70941 9.98902 4.81603 9.65408 4.94813C8.80508 5.28298 8.02748 5.77627 7.36807 6.40435C6.70845 7.03263 6.17972 7.7839 5.81713 8.61794C5.45448 9.45211 5.26647 10.3503 5.26661 11.2595L5.26647 13.9444L5.26646 14.223C5.26646 14.223 5.26581 14.2257 5.26454 14.2287C5.26212 14.2342 5.25559 14.246 5.24044 14.2604L4.52767 14.9393C3.72242 15.7062 3.25025 16.768 3.25 17.8971C3.25 18.9954 3.70899 20.0281 4.49138 20.7734C5.27043 21.5154 6.30699 21.9161 7.36846 21.9161H19.2935C19.8211 21.9161 20.3456 21.8172 20.838 21.623C21.3304 21.4287 21.784 21.1415 22.1706 20.7734C22.5574 20.405 22.8697 19.9623 23.0847 19.4679C23.2998 18.9732 23.412 18.4393 23.412 17.8975C23.4117 16.7685 22.9398 15.7064 22.1345 14.9395L21.4215 14.2604C21.4064 14.246 21.3999 14.2342 21.3974 14.2287C21.3968 14.2273 21.3964 14.226 21.3961 14.225C21.3957 14.2238 21.3955 14.223 21.3955 14.223L21.3954 11.2595C21.3955 10.3503 21.2075 9.45212 20.8448 8.61794C20.4822 7.7839 19.9535 7.03263 19.2939 6.40435C18.6345 5.77627 17.8569 5.28298 17.0079 4.94813C16.6729 4.81601 16.3289 4.70938 15.9791 4.6287C16.0051 4.55778 16.0192 4.48189 16.0192 4.40299V3.5322C16.0192 3.21044 15.9496 2.89183 15.8145 2.59456C15.6794 2.29729 15.4814 2.02719 15.2318 1.79967C14.9822 1.57215 14.6858 1.39167 14.3597 1.26854C14.0335 1.14541 13.6839 1.08203 13.3309 1.08203ZM14.4593 4.44336C14.4585 4.43 14.458 4.41654 14.458 4.40299V3.5322C14.458 3.39729 14.4289 3.26371 14.3722 3.13907C14.3156 3.01443 14.2326 2.90118 14.1279 2.80579C14.0232 2.71039 13.899 2.63472 13.7622 2.58309C13.6255 2.53147 13.4789 2.50489 13.3309 2.50489C13.1829 2.50489 13.0363 2.53147 12.8996 2.58309C12.7628 2.63472 12.6386 2.71039 12.5339 2.80579C12.4292 2.90118 12.3462 3.01443 12.2896 3.13907C12.2329 3.26371 12.2038 3.39729 12.2038 3.5322V4.40299C12.2038 4.41654 12.2034 4.43 12.2025 4.44336C12.2426 4.44271 12.2826 4.44239 12.3227 4.44239H14.3393C14.3793 4.44239 14.4193 4.44271 14.4593 4.44336ZM7.2829 11.2291C7.28284 11.239 7.28281 11.249 7.28281 11.259V14.2223C7.28268 14.7842 7.04822 15.3231 6.631 15.7204L5.91801 16.3995C5.50078 16.7967 5.26632 17.3356 5.2662 17.8975C5.2662 18.4286 5.48768 18.9379 5.88194 19.3134C6.27619 19.6889 6.8109 19.8999 7.36846 19.8999H19.2935C19.5696 19.8999 19.843 19.8481 20.098 19.7475C20.3531 19.6469 20.5848 19.4994 20.78 19.3134C20.9752 19.1275 21.1301 18.9067 21.2357 18.6638C21.3414 18.4209 21.3958 18.1605 21.3958 17.8975C21.3956 17.3356 21.1612 16.7967 20.744 16.3995L20.031 15.7204C19.6137 15.3231 19.3793 14.7842 19.3792 14.2223V11.259C19.3793 10.6285 19.249 10.0043 18.9958 9.42179C18.7426 8.83932 18.3714 8.31007 17.9033 7.86428C17.4353 7.4185 16.8797 7.06491 16.2681 6.82372C15.6566 6.58252 15.0012 6.45845 14.3393 6.45859H12.3227C11.7398 6.45847 11.162 6.55466 10.6148 6.74232C10.5405 6.76777 10.4669 6.79491 10.3938 6.82372C9.7823 7.06491 9.22665 7.4185 8.75863 7.86428C8.2906 8.31007 7.91938 8.83932 7.66615 9.42179C7.41693 9.99505 7.28682 10.6088 7.2829 11.2291Z" fill="white"/>
</svg>
